# xmcd
#
# Track frame offsets: 
#        150
#        1326
#        18568
#        33539
#        55502
#        74222
#        91622
#        107644
#
# Disc length: 1634 seconds
#
# Revision: 0
# Processed by: cddbd v1.5.2PL0 Copyright (c) Steve Scherf et al.
# Submitted via: ExactAudioCopy v1.3
#
DISCID=5e066008
DTITLE=Sarah Rogo - Live At Lestat's West
DYEAR=2017
DGENRE=Blues
TTITLE0=Intro
TTITLE1=Born To Be Blue
TTITLE2=It's Gonna Be Alright
TTITLE3=Oh My God
TTITLE4=Misbehave
TTITLE5=These Are The Blues
TTITLE6=Loving Her Tonight
TTITLE7=Going Where The Weather Suits My Soul
EXTD=
EXTT0=
EXTT1=
EXTT2=
EXTT3=
EXTT4=
EXTT5=
EXTT6=
EXTT7=
PLAYORDER=
